 <svg  version="1.0" xmlns="http://www.w3.org/2000/svg"  width="222.000000pt" height="170.000000pt" viewBox="0 0 222.000000 170.000000"  preserveAspectRatio="xMidYMid meet">  <g transform="translate(0.000000,170.000000) scale(0.100000,-0.100000)" fill="#0369a1" stroke="none"> <path d="M694 1263 c-12 -2 -34 -17 -50 -34 -23 -24 -26 -33 -18 -47 16 -25 47 -26 69 -2 14 15 30 20 72 20 29 0 53 -2 53 -5 0 -3 -75 -124 -166 -270 -91 -146 -164 -273 -162 -282 4 -21 34 -29 52 -14 7 6 66 96 131 201 65 105 122 189 126 188 4 -2 63 -82 130 -178 67 -96 131 -185 142 -198 21 -22 21 -22 301 -20 275 3 281 3 284 24 2 11 -43 107 -103 217 -61 114 -103 203 -99 210 4 6 20 29 37 50 23 29 35 37 62 37 34 0 49 17 38 45 -4 13 -23 15 -102 13 -92 -3 -96 -4 -99 -26 -3 -17 2 -25 17 -29 12 -3 17 -11 14 -19 -4 -12 -53 -14 -279 -14 -151 0 -274 3 -274 8 0 4 11 24 25 44 30 44 31 64 6 78 -19 10 -162 12 -207 3z m653 -216 c-3 -8 -58 -86 -123 -175 -115 -158 -118 -160 -134 -139 -39 51 -220 315 -220 321 0 3 108 6 241 6 198 0 240 -2 236 -13z m30 -355 c-105 -1 -192 -1 -194 2 -2 2 46 72 108 156 l112 151 81 -153 82 -153 -189 -3z"/> <path d="M1367 858 c-61 -82 -70 -132 -22 -126 20 2 34 18 61 65 31 56 33 63 18 77 -22 23 -30 20 -57 -16z"/> <path d="M1580 981 c-17 -5 -26 -15 -28 -33 -3 -25 -1 -25 67 -30 93 -7 169 -44 216 -105 46 -61 58 -103 53 -184 -13 -178 -171 -281 -341 -223 -53 18 -128 80 -163 136 -21 33 -27 37 -44 28 -30 -16 -24 -52 18 -108 74 -99 147 -136 267 -136 65 0 90 4 135 25 104 49 169 124 196 228 37 145 -51 310 -199 376 -57 25 -138 37 -177 26z"/> <path d="M423 966 c-154 -49 -257 -210 -232 -364 16 -101 91 -207 179 -252 159 -81 368 -11 451 152 27 53 37 167 20 235 -16 63 -55 123 -81 123 -33 0 -34 -26 -6 -89 76 -169 -15 -346 -196 -382 -155 -31 -299 96 -300 265 0 99 41 171 129 223 35 20 63 27 122 31 42 2 82 9 89 14 17 14 15 45 -4 52 -27 10 -127 5 -171 -8z"/> </g> </svg> 